<svg width="21" height="15" viewBox="0 0 21 15" fill="none" xmlns="http://www.w3.org/2000/svg">
<g clip-path="url(#clip0_14_1439)">
<rect width="21" height="15" fill="#FFDA2C"/>
<path d="M19 0H2C0.89543 0 0 0.89543 0 2V13C0 14.1046 0.89543 15 2 15H19C20.1046 15 21 14.1046 21 13V2C21 0.89543 20.1046 0 19 0Z" fill="#FFDA2C"/>
<path fill-rule="evenodd" clip-rule="evenodd" d="M0 8H21V15H0V8Z" fill="#249F58"/>
<path fill-rule="evenodd" clip-rule="evenodd" d="M0 0H8V15H0V0Z" fill="#F93939"/>
<path fill-rule="evenodd" clip-rule="evenodd" d="M4.50007 8.75L3.03007 9.523L3.31007 7.886L2.12207 6.726L3.76507 6.489L4.50007 5L5.23507 6.49L6.87807 6.727L5.68807 7.887L5.96807 9.523" fill="#151515"/>
</g>
<defs>
<clipPath id="clip0_14_1439">
<rect width="21" height="15" fill="white"/>
</clipPath>
</defs>
</svg>
