<svg width="21" height="15" viewBox="0 0 21 15" fill="none" xmlns="http://www.w3.org/2000/svg">
<rect width="21" height="15" fill="#F93939"/>
<path fill-rule="evenodd" clip-rule="evenodd" d="M10.155 7.51398C7.44296 6.36598 8.64496 2.82998 11.24 3.00598C10.714 3.27598 10.638 3.77998 10.938 4.24598C11.274 4.76998 10.908 5.61098 10.454 5.81598C9.70796 6.15098 9.55896 7.04598 10.154 7.51398H10.155ZM10.382 7.39198C10.635 4.45898 14.372 4.50898 15.002 7.02998C14.584 6.61498 14.082 6.69798 13.73 7.12798C13.337 7.60798 12.424 7.51798 12.09 7.15098C11.54 6.54698 10.64 6.68098 10.382 7.39298V7.39198ZM10.474 7.68498C13.354 7.06998 14.398 10.657 12.171 11.999C12.447 11.476 12.221 11.019 11.707 10.809C11.133 10.573 10.951 9.67398 11.205 9.24698C11.623 8.54398 11.231 7.72398 10.475 7.68398L10.474 7.68498ZM6.74996 10.98C7.32996 11.08 7.69496 10.723 7.73596 10.17C7.78296 9.54998 8.58096 9.09998 9.06596 9.20998C9.86396 9.38998 10.523 8.76398 10.326 8.03198C11.802 10.582 8.71296 12.682 6.74896 10.979L6.74996 10.98ZM6.15296 5.49998C6.26796 6.07798 6.73096 6.28998 7.26296 6.12998C7.85796 5.95198 8.56496 6.53598 8.63596 7.02998C8.75396 7.83798 9.57396 8.22798 10.186 7.78398C8.33596 10.074 5.26596 7.94398 6.15296 5.49898V5.49998Z" fill="white"/>
</svg>
