<svg width="21" height="15" viewBox="0 0 21 15" fill="none" xmlns="http://www.w3.org/2000/svg">
<rect width="21" height="15" fill="#151515"/>
<path fill-rule="evenodd" clip-rule="evenodd" d="M0 10H21V11H0V10Z" fill="white"/>
<path fill-rule="evenodd" clip-rule="evenodd" d="M0 11H21V15H0V11Z" fill="#0A6A30"/>
<path fill-rule="evenodd" clip-rule="evenodd" d="M0 5H21V10H0V5Z" fill="#F93939"/>
<path fill-rule="evenodd" clip-rule="evenodd" d="M0 4H21V5H0V4Z" fill="white"/>
<path fill-rule="evenodd" clip-rule="evenodd" d="M12.4139 5.91394C12.4859 5.91394 12.9139 5.24394 12.9139 4.41394C12.9139 3.58594 12.4859 2.91394 12.4139 2.91394C12.3439 2.91394 11.9139 3.58594 11.9139 4.41394C11.9139 5.24394 12.3439 5.91394 12.4139 5.91394ZM9.47492 5.47494C9.42492 5.52494 8.64492 5.35494 8.06092 4.76794C7.47592 4.18194 7.30392 3.40394 7.35492 3.35394C7.40492 3.30394 8.18292 3.47394 8.76892 4.06094C9.35492 4.64694 9.52592 5.42494 9.47592 5.47594L9.47492 5.47494ZM11.3539 10.0079C11.4039 9.96094 12.1839 10.1209 12.7689 10.6679C13.3539 11.2179 13.5259 11.9449 13.4759 11.9919C13.4259 12.0389 12.6459 11.8789 12.0599 11.3319C11.4749 10.7819 11.3029 10.0549 11.3539 10.0079ZM9.47492 10.0079C9.42492 9.96094 8.64492 10.1209 8.06092 10.6679C7.47592 11.2179 7.30392 11.9449 7.35492 11.9919C7.40492 12.0389 8.18292 11.8789 8.76892 11.3319C9.35492 10.7819 9.52592 10.0549 9.47592 10.0079H9.47492Z" fill="white"/>
<path fill-rule="evenodd" clip-rule="evenodd" d="M10.5 12C10.857 12 13 9.985 13 7.5C13 5.015 10.857 3 10.5 3C10.143 3 8 5.015 8 7.5C8 9.985 10.143 12 10.5 12Z" fill="#F93939"/>
<path fill-rule="evenodd" clip-rule="evenodd" d="M8.5 9C8.57 9 9 8.328 9 7.5C9 6.672 8.57 6 8.5 6C8.43 6 8 6.672 8 7.5C8 8.328 8.43 9 8.5 9ZM12.5 9C12.57 9 13 8.328 13 7.5C13 6.672 12.57 6 12.5 6C12.43 6 12 6.672 12 7.5C12 8.328 12.43 9 12.5 9Z" fill="#151515"/>
<path d="M11 7.5C11 6.67157 10.7761 6 10.5 6C10.2239 6 10 6.67157 10 7.5C10 8.32843 10.2239 9 10.5 9C10.7761 9 11 8.32843 11 7.5Z" fill="white"/>
</svg>
