<svg width="21" height="15" viewBox="0 0 21 15" fill="none" xmlns="http://www.w3.org/2000/svg">
<g clip-path="url(#clip0_14_1174)">
<rect width="21" height="15" fill="#F93939"/>
<path d="M19 0H2C0.89543 0 0 0.89543 0 2V13C0 14.1046 0.89543 15 2 15H19C20.1046 15 21 14.1046 21 13V2C21 0.89543 20.1046 0 19 0Z" fill="#F93939"/>
<path fill-rule="evenodd" clip-rule="evenodd" d="M6 10H21V15H6V10Z" fill="#249F58"/>
<path fill-rule="evenodd" clip-rule="evenodd" d="M5.99996 0H21V5H5.99996V0ZM4.57596 3.903C4.52096 3.986 4.45796 4.063 4.38596 4.136C3.79896 4.722 2.84896 4.722 2.26396 4.136C1.67796 3.551 1.67796 2.601 2.26396 2.016C2.33596 1.942 2.41396 1.879 2.49696 1.824C2.27196 2.244 2.45696 2.916 2.97096 3.429C3.48496 3.941 4.15596 4.127 4.57696 3.902L4.57596 3.903Z" fill="white"/>
<path fill-rule="evenodd" clip-rule="evenodd" d="M2.42397 3.90297C2.47897 3.98597 2.54197 4.06297 2.61397 4.13597C3.20097 4.72197 4.15097 4.72197 4.73597 4.13597C5.32197 3.55097 5.32197 2.60097 4.73597 2.01597C4.66397 1.94197 4.58597 1.87897 4.50297 1.82397C4.72797 2.24397 4.54297 2.91597 4.02897 3.42897C3.51497 3.94097 2.84397 4.12697 2.42297 3.90197L2.42397 3.90297Z" fill="white"/>
</g>
<defs>
<clipPath id="clip0_14_1174">
<rect width="21" height="15" fill="white"/>
</clipPath>
</defs>
</svg>
