<svg width="21" height="15" viewBox="0 0 21 15" fill="none" xmlns="http://www.w3.org/2000/svg">
<g clip-path="url(#clip0_14_1036)">
<rect width="21" height="15" fill="#1A47B8"/>
<path fill-rule="evenodd" clip-rule="evenodd" d="M0 15H21V0L0 15Z" fill="#FFDA2C"/>
<path fill-rule="evenodd" clip-rule="evenodd" d="M2 15H21V2L2 15Z" fill="#249F58"/>
<path fill-rule="evenodd" clip-rule="evenodd" d="M5.12195 5.658L4.50395 6L4.62195 5.276L4.12195 4.764L4.81195 4.658L5.12195 4L5.43195 4.658L6.12195 4.764L5.62195 5.276L5.73995 6L5.12195 5.658ZM3.12195 3.658L2.50395 4L2.62195 3.276L2.12195 2.764L2.81195 2.658L3.12195 2L3.43195 2.658L4.12195 2.764L3.62195 3.276L3.73995 4L3.12195 3.658ZM7.12195 3.658L6.50395 4L6.62195 3.276L6.12195 2.764L6.81195 2.658L7.12195 2L7.43195 2.658L8.12195 2.764L7.62195 3.276L7.73995 4L7.12195 3.658ZM7.12195 7.658L6.50395 8L6.62195 7.276L6.12195 6.764L6.81195 6.658L7.12195 6L7.43195 6.658L8.12195 6.764L7.62195 7.276L7.73995 8L7.12195 7.658ZM3.12195 7.658L2.50395 8L2.62195 7.276L2.12195 6.764L2.81195 6.658L3.12195 6L3.43195 6.658L4.12195 6.764L3.62195 7.276L3.73995 8L3.12195 7.658Z" fill="white"/>
</g>
<defs>
<clipPath id="clip0_14_1036">
<rect width="21" height="15" fill="white"/>
</clipPath>
</defs>
</svg>
