<svg width="21" height="15" viewBox="0 0 21 15" fill="none" xmlns="http://www.w3.org/2000/svg">
<g clip-path="url(#clip0_14_979)">
<rect width="21" height="15" fill="white"/>
<path fill-rule="evenodd" clip-rule="evenodd" d="M0 10H21V15H0V10Z" fill="#151515"/>
<path fill-rule="evenodd" clip-rule="evenodd" d="M0 0H21V5H0V0Z" fill="#AF010D"/>
<path fill-rule="evenodd" clip-rule="evenodd" d="M6.49995 8.75L5.02995 9.523L5.30995 7.886L4.12195 6.726L5.76495 6.489L6.49995 5L7.23495 6.49L8.87795 6.727L7.68795 7.887L7.96795 9.523L6.49995 8.75ZM14.4999 8.75L13.0299 9.523L13.3099 7.886L12.1219 6.726L13.7649 6.489L14.4999 5L15.2349 6.49L16.8779 6.727L15.6879 7.887L15.9679 9.523" fill="#249F58"/>
</g>
<defs>
<clipPath id="clip0_14_979">
<rect width="21" height="15" fill="white"/>
</clipPath>
</defs>
</svg>
